<?xml version="1.0" encoding="UTF-8" standalone="no"?>
<svg xmlns="http://www.w3.org/2000/svg" xmlns:xlink="http://www.w3.org/1999/xlink" width="100%" height="100%" viewBox="0 0 220 220">
<a xlink:href="/xhtml/object.html" target="_top"><path d="m 197,102 a 98,98 0 1 1 0,-3.4" id="backcircle" style="fill:#cfdde5" /></a>
<path d="m 44,71 c 0,0 2,-7 -5,-16 C 31,45 15,43 15,43 c 0,0 0,15 10,24 11,10 18,4 18,4 z" fill="#f8f894" />
<path d="m 61,90 c 0,0 -2,7 5,16 8,10 24,12 24,12 0,0 -0,-15 -10,-24 C 68,84 61,90 61,90 z" fill="#f8f894" />
<path d="m 55,93 c 0,0 -5,5 -4,16 2,13 14,22 14,22 0,0 7,-13 3,-26 C 64,91 55,93 56,93 z" fill="#f8f894" />
<path d="m 50,68 c 0,0 5,-5 4,-16 C 52,39 39,29 39,29 c 0,0 -7,13 -3,26 5,14 14,12 14,12 z" fill="#f8f894" />
<path d="m 56,68 c 0,0 7,-12 11,-12 5,-12 -1,-26 -1,-26 0,0 -13,7 -16,21 -3,15 6,17 6,17 z" fill="#f8f894" />
<path d="m 48,93 c 0,0 -7,2 -11,12 -5,11 1,26 1,26 0,0 13,-7 16,-21 3,-1 -6,-17 -6,-17 z" fill="#f8f894" />
<path d="M 43,89 C 43,89 36,87 27,94 17,101 14.9,117 14.9,117 c 0,0 14.9,0 24.1,-10 10.1,-11.3 3.6,-18.2 3.6,-18.2 z" fill="#f8f894" />
<path d="m 62.1,71.9 c 0,0 6.9,1.9 15.6,-4.8 10.2,-7.8 12.1,-23.6 12.1,-23.6 0,0 -14.9,0.1 -24.1,10.4 -10.1,11.2 -3.6,18 -3.6,18 z" fill="#f8f894" />
<path d="m 65,77.9 c 0,0 5.1,5.1 16,3.7 12.7,-1.7 22,-14.4 22,-14.4 0,0 -12.7,-7.4 -25.8,-3.1 C 62.8,68.7 65,77.9 65,77.9 z" fill="#f8f894" />
<path d="m 39.7,82.9 c 0,0 -5.1,-5.2 -16,-3.7 C 11,80.9 1.51,93.6 1.51,93.6 c 0,0 12.89,7.4 25.99,3.1 C 41.9,92 39.7,82.9 39.7,82.9 z" fill="#f8f894" />
<path d="m 40.2,76.2 c 0,0 -1.9,-7 -12,-11.2 -11.9,-4.8 -26.5,1.4 -26.5,1.4 0,0 7.5,12.8 21,15.7 14.8,3.1 17.5,-5.9 17.5,-5.9 z" fill="#f8f894" />
<path d="m 64.5,84.6 c 0,0 1.9,7 12,11.1 11.9,5.3 26.5,-1.3 26.5,-1.3 0,0 -7.5,-12.8 -21,-15.7 -14.8,-3.2 -17.5,5.9 -17.5,5.9 z" fill="#f8f894" />
<path d="m 83.5,81.3 a 32,32 0 1 1 -0.1,-1" fill="#f0d4a7" />
<path d="m 110,109 c 0,0 3,-11.1 -8,-24.9 C 89.7,68 64.6,64.9 64.6,64.9 c 0,0 0.1,23.6 16.4,38.1 17.9,16 29,6 29,6 z" fill="#f1f16b" />
<path d="m 137,140 c 0,0 -3,11 7,25 13,16 38,19 38,19 0,0 0,-24 -17,-38 -17,-16 -28,-6 -28,-6 z" fill="#f1f16b" />
<path d="m 129,144 c -1,0 -2,1 -2,1 0,0 -8,8 -6,25 2,13 11,24 17,30 l 6,7 c 3,-8 10,-29 5,-43 -6,-18 -16,-20 -20,-20 z" fill="#f1f16b" />
<path d="m 119,104 c 0,0 8,-7.8 6,-25.1 -3,-20.1 -23,-35.3 -23,-35.3 0,0 -11.5,20.5 -4.7,41.4 7.7,23 21.7,19 21.7,19 z" fill="#f1f16b" />
<path d="m 130,105 c 0,0 11,-3 18,-19 7,-18.8 -3,-42.1 -3,-42.1 0,0 -20,11.9 -25,33.4 -5,23.7 10,27.7 10,27.7 z" fill="#f1f16b" />
<path d="m 117,144 c 0,0 -12,3 -18.2,19 -5.5,13 -2,29 0.4,37 l 3.8,7 c 6,-6 20,-22 23,-35 5,-24 -9,-28 -9,-28 z" fill="#f1f16b" />
<path d="m 108,138 c 0,0 -11.3,-3 -25.1,8 -16.2,12 -19.2,37 -19.2,37 0,0 23.6,0 38.3,-16 16,-18 6,-29 6,-29 z" fill="#f1f16b" />
<path d="m 139,111 c 0,0 11,3 25,-8 16,-12.1 19,-37.2 19,-37.2 0,0 -24,0.2 -39,16.5 -16,17.7 -5,28.7 -5,28.7 z" fill="#f1f16b" />
<path d="m 176,96.4 c -4,0 -9,0.6 -13,2.1 -23,7.5 -20,22.5 -20,22.5 0,0 8,8 26,5 12,-1 22,-9 28,-15 l 9,-10 c -5,-1.7 -21,-4.7 -30,-4.6 z" fill="#f1f16b" />
<path d="m 103,128 c 0,0 -8,-8 -25.3,-5 -20.2,2 -35.3,22 -35.3,22 0,0 20.5,12 41.4,5 23.2,-7 19.2,-22 19.2,-22 z" fill="#f1f16b" />
<path d="m 104,118 c 0,0 -3,-11 -19.2,-18 -18.9,-7.7 -42.1,2 -42,2 0,0 11.9,21 33.4,25 23.4,5 27.9,-9 27.9,-9 z" fill="#f1f16b" />
<path d="m 161,121 c -15,0 -18,10 -18,10 0,0 3,11 19,18 12,5 35,0 43,-2 l -8,-9 c -5,-6 -14,-14 -27,-16 -3,-1 -7,-1 -9,-1 z" fill="#f1f16b" />
<a xlink:href="/javascript/index.html" target="_top">
<path d="m 173,126 a 50.8,50.8 0 1 1 0,-2" style="fill:#eac385" /><g fill="#ebe188"><circle cx="38" cy="64" r="4" /><circle cx="48" cy="64" r="4" /><circle cx="58" cy="64" r="4" /><circle cx="30" cy="74" r="4" /><circle cx="40" cy="74" r="4" /><circle cx="50" cy="74" r="4" /><circle cx="38" cy="84" r="4" /><circle cx="105" cy="93" r="6" /><circle cx="120" cy="93" r="6" /><circle cx="135" cy="93" r="6" /><circle cx="96" cy="106" r="6" /><circle cx="111" cy="106" r="6" /><circle cx="126" cy="106" r="6" /><circle cx="105" cy="119" r="6" /></g>
</a>
</svg>
